<svg id="Camada_1" data-name="Camada 1" xmlns="http://www.w3.org/2000/svg" viewBox="0 0 599 710"><defs><style>.cls-1{fill:#007351;}.cls-2{fill:#fff145;}</style></defs><title>NAIPE</title><path class="cls-1" d="M309,696.49c-.76.19-1.53.35-2.3.51C307.44,696.84,308.21,696.68,309,696.49Z"/><path class="cls-1" d="M303.84,697.54c-.8.13-1.59.24-2.39.34C302.25,697.78,303,697.67,303.84,697.54Z"/><path class="cls-1" d="M313.89,695.08c-.71.24-1.45.45-2.19.67C312.44,695.53,313.18,695.32,313.89,695.08Z"/><path class="cls-1" d="M326.51,688.67c-.48.36-1,.67-1.5,1C325.51,689.34,326,689,326.51,688.67Z"/><path class="cls-1" d="M322.73,691.17c-.57.33-1.19.62-1.78.93C321.54,691.79,322.16,691.5,322.73,691.17Z"/><path class="cls-1" d="M318.5,693.31c-.65.29-1.34.54-2,.81C317.16,693.85,317.85,693.6,318.5,693.31Z"/><path class="cls-1" d="M367.57,20.41a42.39,42.39,0,0,1,5.06,4.33A42.39,42.39,0,0,0,367.57,20.41Z"/><path class="cls-1" d="M344.43,12.11a63.91,63.91,0,0,1,8.16,1.45A63.91,63.91,0,0,0,344.43,12.11Z"/><path class="cls-1" d="M353.23,13.75a47,47,0,0,1,7.1,2.49A47,47,0,0,0,353.23,13.75Z"/><path class="cls-1" d="M360.69,16.38a42.14,42.14,0,0,1,6.09,3.5A42.14,42.14,0,0,0,360.69,16.38Z"/><path class="cls-1" d="M202.8,181.64h0c2.48-.08,4.22,1.08,6,2.93C207,182.72,205.28,181.56,202.8,181.64Z"/><path class="cls-1" d="M329.74,685.8c-.33.35-.73.65-1.08,1C329,686.45,329.41,686.15,329.74,685.8Z"/><path class="cls-1" d="M333.86,11.51c3.28,0,6.37.15,9.25.44C340.23,11.66,337.14,11.52,333.86,11.51Z"/><path class="cls-1" d="M210.64,186.64c1.27,1.51,2.68,3.25,4.46,5.06C213.32,189.89,211.91,188.15,210.64,186.64Z"/><path class="cls-1" d="M339.16,396.7c.11,1.1.26,2.14.41,3.55C339.42,398.84,339.27,397.8,339.16,396.7Z"/><path class="cls-1" d="M344.74,366.35a19.4,19.4,0,0,0-2.5,4.95A19.4,19.4,0,0,1,344.74,366.35Z"/><path class="cls-1" d="M339.57,400.25c.1.94.2,2,.27,3.42C339.77,402.29,339.67,401.19,339.57,400.25Z"/><path class="cls-1" d="M339.84,403.67c.08,1.38.13,3.05.15,5.11C340,406.72,339.92,405.05,339.84,403.67Z"/><path class="cls-1" d="M393,119.69c-.44,5.87-.92,12-1.37,18.34C392.1,131.67,392.58,125.56,393,119.69Z"/><path class="cls-1" d="M391.65,138c-.44,6.36-.84,13-1.13,19.86C390.81,151,391.21,144.39,391.65,138Z"/><path class="cls-1" d="M355.42,542.38a42.42,42.42,0,0,0,2.23-9.53,42.42,42.42,0,0,1-2.23,9.53Z"/><path class="cls-1" d="M356.21,499.47a79,79,0,0,1,1.4,8.11A79,79,0,0,0,356.21,499.47Z"/><path class="cls-1" d="M333.9,679.85a19.63,19.63,0,0,1-1.55,2.73A19.63,19.63,0,0,0,333.9,679.85Z"/><path class="cls-1" d="M334.93,676.79a16.4,16.4,0,0,1-1,3.06A16.4,16.4,0,0,0,334.93,676.79Z"/><path class="cls-1" d="M334.66,652c.56,6.84.89,11.91.95,15.84C335.55,663.9,335.22,658.83,334.66,652Z"/><path class="cls-1" d="M357.61,507.58c.35,2.83.58,5.74.69,8.66C358.19,513.32,358,510.41,357.61,507.58Z"/><path class="cls-1" d="M358.31,524.86c-.11,2.8-.33,5.49-.66,8C358,530.35,358.2,527.66,358.31,524.86Z"/><path class="cls-1" d="M332.67,481.73a7.48,7.48,0,0,0,4.32,2.18A7.48,7.48,0,0,1,332.67,481.73Z"/><path class="cls-1" d="M339.16,396.7a40,40,0,0,1,.1-7.77c.34-4.08.74-7.5,1.22-10.39-.48,2.89-.88,6.31-1.22,10.39A40,40,0,0,0,339.16,396.7Z"/><path class="cls-1" d="M375.73,105.26c.29,1,2.23-36.5-12.33-66-9.46-19.15-30.06-27.57-30.27-27.79-3.19,0-6.52.12-10.14.4C325,11.75,365.23,69.43,375.73,105.26Z"/><path class="cls-1" d="M352.78,489.6a14.11,14.11,0,0,0-3.21-4.18,9.41,9.41,0,0,0-4.88-2.38,9.41,9.41,0,0,1,4.88,2.38A14.11,14.11,0,0,1,352.78,489.6Z"/><path class="cls-1" d="M358.73,356.59c2.71-1.49,5.84-3.33,9.37-5.64h0C364.57,353.26,361.43,355.1,358.73,356.59Z"/><path class="cls-1" d="M288.61,651.7c1.81-7.23-6.36-54.66-1.89-90.41,2.27-18.17,20.86-56.9,12.64-58.8-19-4.37-25-15.18-31-18.33-12-6.32,6.32,48.05-6.85,34.32,16.4,51.18-10.76,83.28-8.65,103.47,1.65,15.71-5.66,56.55,6.21,67,8.81,7.78,25.16,10.73,40.51,9.09C284.53,699.22,285.47,664.25,288.61,651.7Z"/><path class="cls-1" d="M383,38.9c1.33,2.38,2.63,4.87,3.89,7.56C385.64,43.77,384.34,41.28,383,38.9Z"/><path class="cls-1" d="M282.29,399.44c-8-20.78,13.91-11.94,9.39-27.82-2.41-8.48-45.61-92.94-39.46-133,2.64-17.19,16.7-77.9,22.91-89.21,2.77-4.08,7.48,18.38,9.08-4.67,2.28-32.94-35.44-87-12.32-103-23.12,16-20.4,15.35-31.81,28.91C224.88,88.7,221.72,105.41,222.8,119c2.06,25.77,19.47,79.28,16.69,83.36,0,0,11.19,29.74-5.08,33.29-8.44,1.84-22.39-33.79-24.87-21.9-4.71,22.61-12.15,24.68-16,17.52,3.19,6.26,7.46,2.28,19.58,14.28,18.51,18.31,20.37,15.3,24.19,22.45s3.62,13.49-1.73,48.37c-6.15,40.05,2,46.35,4.46,54.82,4.51,15.89,3.11,12.5,11.08,33.27,7.21,18.77,7.81,38.14,3.46,39.73h0C291.68,454.44,289.5,418.2,282.29,399.44Z"/><path class="cls-1" d="M340,542.71c3.39-.36,6.81-.46,9.57-.47C346.8,542.25,343.38,542.35,340,542.71Z"/><path class="cls-1" d="M389.46,52.63a93.64,93.64,0,0,1,4.91,27A93.64,93.64,0,0,0,389.46,52.63Z"/><path class="cls-1" d="M335.07,369.92c1.07-.12,7.08-3.67,14.56-8.12,1.43-1,3.06-1.91,4.9-2.92,4.49-2.67,9.21-5.45,13.56-7.92,2.31-1.51,4.75-3.18,7.45-5.22a8.22,8.22,0,0,0,1.63-1.65,9.58,9.58,0,0,0,1.15-2.06,14.58,14.58,0,0,0,.9-3.93c-.53-1-27.39,13-35.18,10.18-10.58-3.78-6.87-25.66-6.51-25-2.28-4.17-3.42-10.58-3.86-17.87,0,0,0,.14,0,.14C312.88,307.82,322.45,371.28,335.07,369.92Z"/><path class="cls-1" d="M378.54,31.77c1.39,2,2.72,4,4,6.27C381.26,35.8,379.93,33.73,378.54,31.77Z"/><path class="cls-1" d="M373.45,25.56a52.88,52.88,0,0,1,4.39,5.24A51.55,51.55,0,0,0,373.45,25.56Z"/><path class="cls-1" d="M393,119.69c.89-11.76,1.61-22.59,1.55-32.65C394.63,97.1,393.91,107.93,393,119.69Z"/><path class="cls-1" d="M379.22,338.1h0a22.16,22.16,0,0,0,.12-3.93A22.16,22.16,0,0,1,379.22,338.1Z"/><path class="cls-2" d="M189,197.19a28.61,28.61,0,0,1,3.43-7.85A28.61,28.61,0,0,0,189,197.19Z"/><path class="cls-2" d="M202.8,181.64h0c-3.26.11-6.28,2.3-8.7,5.31C196.52,183.94,199.54,181.75,202.8,181.64Z"/><path class="cls-2" d="M193.58,231.28a15.74,15.74,0,0,1-1-2.25A14.64,14.64,0,0,0,193.58,231.28Z"/><path class="cls-2" d="M209.54,213.76c2.48-11.89,16.43,23.74,24.87,21.9,16.27-3.55,5.08-33.29,5.08-33.29-2.79,4.11-7.25,1.62-17.69-5.18a40.13,40.13,0,0,1-6.7-5.49c-1.78-1.81-3.19-3.55-4.46-5.06q-.94-1.14-1.83-2.07c-1.79-1.85-3.53-3-6-2.93-3.26.11-6.28,2.3-8.7,5.31a25.63,25.63,0,0,0-1.69,2.39,28.61,28.61,0,0,0-3.43,7.85c-.67,2.58.32,22.42,3.6,31.84a15.74,15.74,0,0,0,1,2.25C197.39,238.44,204.83,236.37,209.54,213.76Z"/><path class="cls-2" d="M325,689.69c-.74.5-1.48,1-2.28,1.48C323.53,690.7,324.26,690.19,325,689.69Z"/><path class="cls-2" d="M354.53,358.88c-1.84,1-3.47,2-4.9,2.92Z"/><path class="cls-2" d="M337,483.91c2,.2,3.7-.59,5.66-.85C340.69,483.32,339,484.11,337,483.91Z"/><path class="cls-2" d="M328.66,686.77c-.69.65-1.38,1.3-2.15,1.9C327.28,688.07,328,687.42,328.66,686.77Z"/><path class="cls-2" d="M372.63,24.74c.28.27.55.54.82.82C373.18,25.28,372.91,25,372.63,24.74Z"/><path class="cls-2" d="M333.67,305.42c.07-1.49,1.83-38.81,3.48-48.9C335.47,266.79,332.65,288.52,333.67,305.42Z"/><path class="cls-2" d="M349.56,542.24c3.45,0,5.86.14,5.86.14h0S353,542.23,349.56,542.24Z"/><path class="cls-2" d="M332.35,682.58a23.42,23.42,0,0,1-2.61,3.22A23.42,23.42,0,0,0,332.35,682.58Z"/><path class="cls-2" d="M228,429.93c12-.73,21.79,16,26.63,14.27C249.65,442.83,240,429.2,228,429.93Z"/><path class="cls-2" d="M343.11,12c.45,0,.88.1,1.32.16C344,12.06,343.56,12,343.11,12Z"/><path class="cls-2" d="M333.05,11.47l.08,0h.73C333.57,11.51,333.34,11.47,333.05,11.47Z"/><path class="cls-2" d="M352.59,13.56l.64.19Z"/><path class="cls-2" d="M382.54,38c.16.28.31.57.47.86C382.85,38.61,382.7,38.31,382.54,38Z"/><path class="cls-2" d="M247.71,506.39c11.26,10,11.13,9.29,13.82,12.09C260.34,514.78,259,516.42,247.71,506.39Z"/><path class="cls-2" d="M377.84,30.8c.24.31.47.64.7,1C378.31,31.45,378.08,31.11,377.84,30.8Z"/><path class="cls-2" d="M360.33,16.24l.36.14Z"/><path class="cls-2" d="M366.78,19.88c.26.18.53.34.79.53C367.31,20.22,367,20.06,366.78,19.88Z"/><path class="cls-2" d="M311.7,695.75c-.9.26-1.8.52-2.73.74C309.9,696.27,310.8,696,311.7,695.75Z"/><path class="cls-2" d="M316.48,694.12c-.85.33-1.7.66-2.59,1C314.78,694.78,315.63,694.45,316.48,694.12Z"/><path class="cls-2" d="M306.67,697c-.94.19-1.88.38-2.83.54C304.79,697.38,305.73,697.19,306.67,697Z"/><path class="cls-2" d="M219.87,433.28a19.25,19.25,0,0,0-5,7.47q-1.32,3.3-2.25,6.18c.63-1.92,1.37-4,2.25-6.18A19.25,19.25,0,0,1,219.87,433.28Z"/><path class="cls-2" d="M321,692.1c-.81.42-1.6.83-2.45,1.21C319.35,692.93,320.14,692.52,321,692.1Z"/><path class="cls-2" d="M299.94,698.1c.51-.05,1-.15,1.51-.22-.61.09-1.23.15-1.85.21C299.72,698.08,299.82,698.12,299.94,698.1Z"/><path class="cls-2" d="M228,429.93a13.43,13.43,0,0,0-5.92,1.76,13.43,13.43,0,0,1,5.93-1.76Z"/><path class="cls-2" d="M394.37,79.64a93.64,93.64,0,0,0-4.91-27q-1.12-3.14-2.56-6.17c-1.26-2.69-2.56-5.18-3.89-7.56-.16-.29-.31-.58-.47-.86-1.28-2.24-2.61-4.31-4-6.27-.23-.33-.46-.66-.7-1a52.88,52.88,0,0,0-4.39-5.24c-.27-.28-.54-.55-.82-.82a42.39,42.39,0,0,0-5.06-4.33c-.26-.19-.53-.35-.79-.53a42.14,42.14,0,0,0-6.09-3.5l-.36-.14a47,47,0,0,0-7.1-2.49l-.64-.19a63.91,63.91,0,0,0-8.16-1.45c-.44-.06-.87-.12-1.32-.16-2.88-.29-6-.43-9.25-.44h-.73c.21.22,20.81,8.64,30.27,27.79,14.56,29.46,12.62,67,12.33,66C365.23,69.43,325,11.75,323,11.91c-16.43,1.27-25.5,12.09-51.1,29.82-23.12,16,14.6,70.07,12.32,103-1.6,23-6.31.59-9.08,4.67-6.21,11.31-20.27,72-22.91,89.21-6.15,40.06,37,124.52,39.46,133,4.52,15.88-17.37,7-9.39,27.82,7.21,18.76,9.39,55-27.67,44.76h0C249.78,446,240,429.2,228,429.93h0a13.19,13.19,0,0,0-8.12,3.35,19.25,19.25,0,0,0-5,7.47c-.88,2.2-1.62,4.26-2.25,6.18-4.34,13.5-2.69,20.58-.78,23.61,4.08,6.47,21.3,22.89,35.85,35.85,11.26,10,12.63,8.39,13.82,12.09,13.17,13.73-5.16-40.64,6.85-34.32,6,3.15,12,14,31,18.33,8.22,1.9-10.37,40.63-12.64,58.8-4.47,35.75,3.7,83.18,1.89,90.41-3.14,12.55-4.08,47.52,11,46.39.62-.06,1.24-.12,1.85-.21.8-.1,1.59-.21,2.39-.34,1-.16,1.89-.35,2.83-.54.77-.16,1.54-.32,2.3-.51.93-.22,1.83-.48,2.73-.74.74-.22,1.48-.43,2.19-.67.89-.3,1.74-.63,2.59-1,.68-.27,1.37-.52,2-.81.85-.38,1.64-.79,2.45-1.21.59-.31,1.21-.6,1.78-.93.8-.47,1.54-1,2.28-1.48.5-.35,1-.66,1.5-1,.77-.6,1.46-1.25,2.15-1.9.35-.32.75-.62,1.08-1a23.42,23.42,0,0,0,2.61-3.22,19.63,19.63,0,0,0,1.55-2.73,16.4,16.4,0,0,0,1-3.06,37.06,37.06,0,0,0,.68-9c-.06-3.93-.39-9-.95-15.84s-1.34-15.43-2.31-26.41c-4.28-48.53-10.9-70.39-6.1-77.78,2-3,7.81-4.45,13.74-5.09,3.39-.36,6.81-.46,9.57-.47,3.45,0,5.85.14,5.86.14a42.42,42.42,0,0,0,2.23-9.53c.33-2.5.55-5.19.66-8s.11-5.71,0-8.62-.34-5.83-.69-8.66a79,79,0,0,0-1.4-8.11,40.54,40.54,0,0,0-3.43-9.87,14.11,14.11,0,0,0-3.21-4.18,9.41,9.41,0,0,0-4.88-2.38,8.16,8.16,0,0,0-2,0c-2,.26-3.7,1.05-5.66.85a7.48,7.48,0,0,1-4.32-2.18c-8.07-7.3,5.56-26.56,6.86-54.71.39-8.34.5-14.1.46-18.24,0-2.06-.07-3.73-.15-5.11s-.17-2.48-.27-3.42c-.15-1.41-.3-2.45-.41-3.55a40,40,0,0,1,.1-7.77c.34-4.08.74-7.5,1.22-10.39a44.45,44.45,0,0,1,1.76-7.24,19.4,19.4,0,0,1,2.5-4.95,18.52,18.52,0,0,1,4.89-4.55c-7.48,4.45-13.49,8-14.56,8.12-12.62,1.36-22.19-62.1-1.41-64.36,0,0,0-.11,0-.14-1-16.9,1.8-38.63,3.48-48.9,2.76-16.81,53-56.12,52.94-77.16,0-7.44.14-14.59.43-21.47s.69-13.5,1.13-19.86.93-12.47,1.37-18.34c.89-11.76,1.61-22.59,1.55-32.65C394.56,84.52,394.5,82.06,394.37,79.64Z"/><path class="cls-2" d="M378.32,342a14.58,14.58,0,0,0,.9-3.93h0A14.58,14.58,0,0,1,378.32,342Z"/><path class="cls-2" d="M377.17,344.09a8.22,8.22,0,0,1-1.63,1.65c-2.7,2-5.14,3.71-7.45,5.22h0c2.3-1.5,4.74-3.17,7.44-5.21A8.22,8.22,0,0,0,377.17,344.09Z"/><path class="cls-2" d="M344,348.28c7.79,2.78,34.65-11.18,35.18-10.18a22.16,22.16,0,0,0,.12-3.93c-.66-10.55-7.45-23-10.71-19.52-14.73,15.52-31.1,8.64-31.1,8.64C337.17,322.62,333.46,344.5,344,348.28Z"/></svg>